PathFileType	4	(X/Y/Z)	33_2_45_p0_0-240_filt_butterworth.trc
DataRate	CameraRate	NumFrames	NumMarkers	Units	OrigDataRate	OrigDataStartFrame	OrigNumFrames
59.0	59.0	7	27	m	59.0	210	240
Frame#	Time	RHip			RKnee			RAnkle			RBigToe			RSmallToe			RHeel			LHip			LKnee			LAnkle			LBigToe			LSmallToe			LHeel			Neck			Head			Nose			RShoulder			RElbow			RWrist			RThumb			RIndex			RPinky			LShoulder			LElbow			LWrist			LThumb			LIndex			LPinky			
		X1	Y1	Z1	X2	Y2	Z2	X3	Y3	Z3	X4	Y4	Z4	X5	Y5	Z5	X6	Y6	Z6	X7	Y7	Z7	X8	Y8	Z8	X9	Y9	Z9	X10	Y10	Z10	X11	Y11	Z11	X12	Y12	Z12	X13	Y13	Z13	X14	Y14	Z14	X15	Y15	Z15	X16	Y16	Z16	X17	Y17	Z17	X18	Y18	Z18	X19	Y19	Z19	X20	Y20	Z20	X21	Y21	Z21	X22	Y22	Z22	X23	Y23	Z23	X24	Y24	Z24	X25	Y25	Z25	X26	Y26	Z26	X27	Y27	Z27	
210	3.559322033898305	0.2982525202315054	0.3550035717262949	0.10946742687842756	0.2994801197954426	0.582566560205623	0.5275377100240413	0.2843178577435694	0.7802112087899494	0.9119643474765289	0.2659164584452547	0.6678627929141915	1.0075677664959437	0.3318832074555889	0.6395091373767527	0.9962832103566823	0.24120526032329315	0.8668493878311012	0.9517624717463912	0.07629258027494837	0.3616186372133015	0.12283205169826336	0.08327524597779866	0.5799840254921684	0.5381169116861195	0.06856024109962099	0.7918358983793091	0.9210326706450299	0.10055200552237333	0.6171848742859802	0.9953285353423347	0.04026554604201901	0.6597941720072747	0.9933188524454194	0.08356483779387656	0.8474724830794752	0.9547070644602265	0.22454270584052274	0.05282905529890482	-0.39023050529039066	0.2288255706814627	-0.10104558263638191	-0.5916114171592074	0.21376258534341996	-0.10570713134360804	-0.4272350580131713	0.37786188714023117	0.1233836617709911	-0.3121250961176955	0.4083607440974587	0.234674879901563	-0.06257573631641089	0.29667375517089467	0.20327248254366992	0.17505504675755848	0.1960833682492241	0.20419684891183	0.26456898646878013	0.18779771742612844	0.2253691511325584	0.28228996248817695	0.18465406769663695	0.2583031227344328	0.26826817504882294	0.05187801622907575	0.06388508516219815	-0.3021533724268636	0.01921825863864257	0.18413323080747124	-0.052042337029772824	0.09663473477225713	0.16095058014831898	0.18763582796927017	0.1858698759220709	0.13531787924871247	0.24201659845154638	0.18294442950891115	0.1630492900195512	0.2820513173660792	0.14192720501482137	0.2214574826587114	0.2816982398463166
211	3.5762711864406778	0.30011833278951966	0.35457168172476816	0.10866835499656473	0.2994554374179706	0.5820501196088143	0.5274963194327328	0.2843421636945756	0.7803626034430801	0.9114804172854228	0.2659842251005289	0.6674754672461538	1.0074755796598707	0.3318479310196584	0.6394589902278547	0.996307707268723	0.24226764134606094	0.8669743180809893	0.951637066867133	0.0774225240066305	0.36117218494069686	0.1266616431309832	0.08218291850083008	0.5782713337933494	0.5379536607323222	0.06883812712534464	0.7914216653004779	0.919019871624981	0.1005365079636145	0.6169997388926218	0.9952849896108247	0.040234632455134006	0.6598301006488344	0.993301144225017	0.08352754121568348	0.8466098489531615	0.9523201991872975	0.2240377390296201	0.0540421953972232	-0.39041864911282376	0.2283123119483591	-0.10396298019067358	-0.5905188160796547	0.21378469707493236	-0.10567662671673174	-0.427226406359389	0.37750363866265557	0.12173903009276729	-0.3121065461328547	0.4080538698433209	0.24476314900321083	-0.06260559452977145	0.28747990184310607	0.20324157270565746	0.17490476199596794	0.19575763540059551	0.2007772178332938	0.2613209030238274	0.18664652252706493	0.22111867439486624	0.2795383050559578	0.17841447830036056	0.2415030170549704	0.26714207081511787	0.051883933980470864	0.06372928634138855	-0.30209949723497653	0.020694002377041415	0.17585358534873222	-0.04897369434905716	0.10061993137141245	0.16298205366308105	0.1855864233374248	0.19497537941789406	0.13606305941059288	0.22730182599249163	0.19095270458528366	0.18124694427237703	0.27506425090026393	0.16153579681010538	0.22019170415847522	0.2794244722468366
212	3.593220338983051	0.3015264429011709	0.35483049348929707	0.10881933561719483	0.2995132625406267	0.581826012355549	0.5272933741493999	0.28464974753997296	0.7796569719746632	0.9106320948592741	0.2660282253605001	0.6672668996100648	1.007413326344924	0.3318308797962867	0.6394539699251757	0.9963333326377726	0.24276401523090593	0.8672438097336433	0.9515100075463712	0.08032599706332853	0.3602183073186297	0.13227160763264342	0.08138948998778095	0.576526747426331	0.5378447481505859	0.06943242313609053	0.7911874643182594	0.9171707612820924	0.10050622084159075	0.6166808622421525	0.9952316737473188	0.04021437865319626	0.6598739349846281	0.9932647050162264	0.0835505464088437	0.8461882840881076	0.9502122274654587	0.22329860678756297	0.05592012889860484	-0.3907493743121466	0.22808380576662465	-0.10501463038079545	-0.589880742209099	0.21380790325528212	-0.10556981906061803	-0.4272605285034062	0.3774474778935072	0.12129305971947152	-0.3122424327669495	0.40789504140729343	0.2516427493728335	-0.06381591133627224	0.2794908871144063	0.20794350659306615	0.17244168468946913	0.19657607460617385	0.1997328355024486	0.25770733643311666	0.18677520393696423	0.22070455639582814	0.2745647520548284	0.17726921790404004	0.238117010880068	0.2615627067728592	0.051872865958212236	0.06345220432277739	-0.3020199696662441	0.021852040967577098	0.16909156214101712	-0.047541510537492254	0.10442748356002315	0.16642666103477347	0.18198524159431292	0.2037764040728754	0.1400459241553176	0.21434604628826268	0.19818908444997121	0.19395488164023897	0.2658344775073988	0.17593616288947792	0.21820577153945891	0.2777210965882441
213	3.610169491525424	0.30204277149490233	0.35635896000411	0.11144096334263177	0.2998324698541238	0.5830840059067922	0.5271513524123776	0.285543792204075	0.7769370427217546	0.909897639748178	0.26604380909559117	0.6672868024496719	1.0073868357520643	0.3318437643925845	0.6395692302279763	0.9963467262820686	0.2428851680150441	0.8675001294501298	0.9514068643034181	0.08401348904042727	0.35940809289429476	0.139007975644113	0.08101469203268793	0.5759448982982687	0.5377916358709982	0.06977750084700202	0.7906835554600344	0.915424917689059	0.10049363216549469	0.6167053736739214	0.995204842708913	0.040208387388158975	0.6599305936084272	0.9932376599893502	0.08361510218176123	0.8461821500446403	0.9489417013278	0.22297938594007277	0.0568536340421828	-0.3911744664543294	0.22803264587126282	-0.10487609794845719	-0.5892809092830995	0.21382758198808074	-0.1054687804939805	-0.4273267576152213	0.3775461148906443	0.12154787245239135	-0.3123776816016305	0.40770001246445564	0.2536029226217934	-0.06577790556079331	0.272608538965744	0.2178369278928655	0.1671230725470819	0.19884923470544136	0.2014659120071577	0.2517378112752438	0.18642407001618466	0.2263064834131081	0.2666524185504936	0.17591755805281686	0.24917681950230802	0.2512871260278685	0.05189891957257596	0.06345313848461367	-0.30205018466009476	0.022389105918926684	0.16620802076401697	-0.047630615924932077	0.10860051552417088	0.1702042082389785	0.17651796210826506	0.21220538100561415	0.14913676576724322	0.20421418997418705	0.20673330702407983	0.200109719997874	0.2546634548323118	0.184366932010691	0.21841951875153615	0.2751181731295388
214	3.6271186440677967	0.30191236459776477	0.35895539688521744	0.11611115620808858	0.30057554842883233	0.5868440487423112	0.5273221337583139	0.28710759154700605	0.7717301580439639	0.9097645157073277	0.2660798347374205	0.6673691745495625	1.007352434152322	0.33188232873684326	0.6397804225881107	0.9963326372611396	0.2427940344982678	0.8673596392784191	0.9514496895110796	0.08674867023172902	0.3598395365826349	0.14490831937001547	0.0808647433160834	0.5767430473729073	0.5377871651955649	0.06938237579604033	0.7898011353114924	0.914311879585559	0.10060831301928255	0.6182271634882516	0.9952908320552688	0.04022315952177289	0.6599565098196286	0.9932209019483631	0.08362159581570955	0.8464372210875267	0.9486476486065425	0.22334653098537788	0.0561830215508302	-0.39149331268082405	0.22800877008085582	-0.10434323983991821	-0.5884817395596895	0.21384873917674832	-0.10555867138906164	-0.42736931891907803	0.377885278833508	0.12290161506839775	-0.31282103714069265	0.40754816856798237	0.2526821384945273	-0.06764543412476035	0.267995323816772	0.2278510382292947	0.16073086042821721	0.20232485735394085	0.20558367316900525	0.2431667943398732	0.18542798567338042	0.23825983936533046	0.2565921944994225	0.1726193610302342	0.26685107271233294	0.23906536218968896	0.05209637969360151	0.06460994616372512	-0.302503500947352	0.022535706531642347	0.1659375265321175	-0.04845507764284184	0.11384963157453744	0.17311481083839306	0.17020415170422154	0.2206468914878365	0.16161621848005034	0.1971978105849742	0.2163694539129164	0.20389220031234714	0.24367031533769473	0.1877511003731601	0.22370808668845749	0.27137174794572744
215	3.6440677966101696	0.3016101910391849	0.36146935262399926	0.12040524060555197	0.301535359507743	0.5923574025910764	0.528187527802876	0.2887516678634093	0.7660226610284543	0.9100939560591362	0.2661581968640909	0.6673748177478728	1.0072901889683137	0.3319322648598244	0.6399825995828542	0.9962903430623583	0.24229202390674165	0.8658593288688389	0.9519252139586081	0.08788504137257618	0.3615100354309709	0.14858686839311686	0.08079914421436263	0.5779433295101902	0.5378185779089262	0.06854767564261016	0.7890337648797963	0.9141310590903631	0.10094503689557438	0.6221460814626891	0.9955604727435585	0.04025140650449812	0.6599392329942487	0.9932059835809983	0.08345677345558902	0.8467509420882554	0.9489194912221814	0.22353669280410005	0.05594640952827882	-0.3913609807773961	0.22795720616364376	-0.10383219516848463	-0.5876673067141975	0.21385478542887734	-0.10596607584725236	-0.4273051636527079	0.3785901871398428	0.12590450431324568	-0.3138929783665859	0.40788011097259724	0.25169403157372544	-0.06887318258830052	0.26655822920945416	0.2330300125114353	0.15594897681143777	0.20547773031872846	0.21125290878204303	0.23525026889927012	0.1848496733621016	0.25190849640475155	0.2472579024601069	0.16893437029067696	0.2807723592105974	0.22845971639107082	0.05256805906955261	0.06757092797788775	-0.30362425897932155	0.022524355788572516	0.16612435598044115	-0.04923240157276893	0.11946087320269763	0.1746278093462325	0.16463114996493236	0.22778290079132338	0.17280938532494355	0.19374815884145793	0.22439706627942024	0.20818048672627448	0.23578235730341063	0.18667249281831982	0.2349718890655856	0.26732153225879657
216	3.6610169491525424	0.30143204015263353	0.3625573013932277	0.12173189624226557	0.3022380112546657	0.5973581113542128	0.5299457835825677	0.289361420834428	0.7637421428853709	0.9105089342147081	0.26624791876060144	0.6673041143768361	1.007232521992745	0.331977842847583	0.6400973423999057	0.9962328923247794	0.24115046845944646	0.8622355466777147	0.95307139969275	0.08798304661824549	0.36294511643548566	0.14960774664627724	0.08077326290741696	0.5786586817466376	0.5378682076803922	0.0678723548001058	0.7886983328073633	0.9144255440802753	0.10140455840025862	0.6273916205590836	0.9959424414794912	0.040268090292432494	0.6599241945595499	0.9931953679197653	0.08316501435808658	0.8468108120330019	0.9492135420071762	0.22273957913071846	0.0580122137551926	-0.3904241776079528	0.22788726256723482	-0.10367112955351226	-0.5870923815938435	0.2137376465466425	-0.10657908891722435	-0.427077043973549	0.3794766640634087	0.1297447493750344	-0.31534944869259207	0.40903139425886664	0.25193975337782354	-0.06938712403886249	0.2673058572449133	0.23261740703520625	0.15405386664153067	0.20680881547723004	0.21640332686965227	0.23172522992814357	0.18498090128367342	0.2609772086724221	0.2417044917540869	0.16638690350671026	0.2866930186959221	0.22168635186570776	0.053183042920786315	0.07145796954211571	-0.3050951852032845	0.022430314110119212	0.1656830483467908	-0.04957627221922508	0.12363521793730592	0.17509558665451175	0.16084148999986425	0.23183114057437815	0.17948586862803567	0.19368161372903772	0.22858980787694666	0.21218152647902394	0.23252268245706553	0.18250986325470914	0.2489440733850455	0.2639852111623917
